<svg aria-hidden="true" style="width:0;height:0;position:absolute;overflow:hidden" xmlns="http://www.w3.org/2000/svg"><defs><symbol id="icon-emblem" viewBox="0 0 20 32"><path fill="#fff" d="M9.005 30.891A8.654 8.654 0 0 1 5.6 25.595l-.009-.055H-.001V2.421c2.991 1.443 5.154 4.601 5.389 7.877l.845 6.494-.407-.045c-.893 0-1.676.812-1.676 1.608 0 .752.595 1.383 1.379 1.548l1.018.226c1.675-3.051 2.63-6.043 2.63-8.974 0-2.646-.36-5.292-.422-7.998 0-1.202.485-2.3 1.253-3.156.783.857 1.253 1.954 1.253 3.156 0 2.706-.423 5.352-.423 7.998 0 2.93.955 5.923 2.631 8.974l1.018-.226c.783-.165 1.378-.811 1.378-1.548 0-.811-.783-1.608-1.675-1.608l-.423.06.845-6.494c.423-3.277 2.398-6.449 5.389-7.877v23.119h-5.577c-.422 2.18-1.613 4.148-3.414 5.351-.423.286-.783.632-1.018 1.098-.22-.466-.58-.812-.987-1.112zM2.646 17.558c.235-.857.893-1.609 1.738-2.075l-.658-5.351A8.287 8.287 0 0 0 1.683 5.75l.007.008v11.784h.956v.015zm2.819 6.374c0-.812.125-1.548.298-2.3l-.784-.18c-1.143-.346-2.036-1.203-2.333-2.3h-.957v4.781h3.775zm3.713 0c0-.977-.783-1.834-1.801-1.954-.173.63-.298 1.262-.298 1.954h2.099zm0 1.623H7.314c.298 1.262.955 2.42 1.864 3.397v-3.397zm2.63-5.006c-.72-1.263-1.377-2.585-1.8-3.968-.423 1.383-1.08 2.705-1.801 3.968.72.165 1.315.631 1.8 1.157.486-.526 1.082-.992 1.802-1.157zm1.144 3.383c0-.692-.125-1.323-.297-1.954-1.018.12-1.801.977-1.801 1.954h2.098zm-.235 1.623h-1.863v3.397c.908-.992 1.566-2.135 1.863-3.397zm5.624-1.623v-4.781h-.956c-.297 1.097-1.206 1.954-2.333 2.3l-.783.18c.172.752.297 1.488.297 2.3h3.775zm0-6.374V5.757c-1.08 1.203-1.864 2.706-2.036 4.375l-.658 5.351c.846.466 1.504 1.203 1.738 2.075h.956z"/></symbol><symbol id="icon-arrow-down" viewBox="0 0 32 32"><path fill="#4f2ee8" style="fill:var(--color1,#4f2ee8)" d="M15.057 17.87c.242.243.576.393.946.393s.704-.15.946-.393l6.11-6.122a1.333 1.333 0 0 1 1.891 1.88l-6.12 6.122c-.724.723-1.723 1.169-2.827 1.169s-2.103-.447-2.827-1.17l-6.122-6.122a1.334 1.334 0 1 1 1.894-1.88l6.107 6.12z"/></symbol><symbol id="icon-search" viewBox="0 0 32 32"><path d="m31.008 27.231-7.58-6.447c-.784-.705-1.622-1.029-2.299-.998a11.954 11.954 0 0 0 2.87-7.787c0-6.627-5.373-12-12-12s-12 5.373-12 12 5.373 12 12 12c2.972 0 5.691-1.081 7.787-2.87-.031.677.293 1.515.998 2.299l6.447 7.58c1.104 1.226 2.907 1.33 4.007.23s.997-2.903-.23-4.007zM12 20a8 8 0 1 1 0-16 8 8 0 0 1 0 16z"/></symbol><symbol id="icon-save-children" viewBox="0 0 64 32"><path fill="#fff" d="M0 0h64v32H0z"/></symbol></defs></svg>