<svg aria-hidden="true" style="position: absolute; width: 0; height: 0; overflow: hidden;" version="1.1" xmlns="http://www.w3.org/2000/svg" xmlns:xlink="http://www.w3.org/1999/xlink">
<defs>
<symbol id="icon-emblem" viewBox="0 0 20 32">
<path fill="#fff"d="M9.005 30.891c-1.739-1.269-2.974-3.138-3.405-5.296l-0.009-0.055h-5.592v-23.119c2.991 1.443 5.154 4.601 5.389 7.877l0.845 6.494-0.407-0.045c-0.893 0-1.676 0.812-1.676 1.608 0 0.752 0.595 1.383 1.379 1.548l1.018 0.226c1.675-3.051 2.63-6.043 2.63-8.974 0-2.646-0.36-5.292-0.422-7.998 0-1.202 0.485-2.3 1.253-3.156 0.783 0.857 1.253 1.954 1.253 3.156 0 2.706-0.423 5.352-0.423 7.998 0 2.93 0.955 5.923 2.631 8.974l1.018-0.226c0.783-0.165 1.378-0.811 1.378-1.548 0-0.811-0.783-1.608-1.675-1.608l-0.423 0.060 0.845-6.494c0.423-3.277 2.398-6.449 5.389-7.877v23.119h-5.577c-0.422 2.18-1.613 4.148-3.414 5.351-0.423 0.286-0.783 0.632-1.018 1.098-0.22-0.466-0.58-0.812-0.987-1.112zM2.646 17.558c0.235-0.857 0.893-1.609 1.738-2.075l-0.658-5.351c-0.246-1.699-0.976-3.196-2.043-4.382l0.007 0.008v11.784h0.956v0.015zM5.465 23.932c0-0.812 0.125-1.548 0.298-2.3l-0.784-0.18c-1.143-0.346-2.036-1.203-2.333-2.3h-0.957v4.781h3.775zM9.178 23.932c0-0.977-0.783-1.834-1.801-1.954-0.173 0.63-0.298 1.262-0.298 1.954h2.099zM9.178 25.555h-1.864c0.298 1.262 0.955 2.42 1.864 3.397v-3.397zM11.808 20.549c-0.72-1.263-1.377-2.585-1.8-3.968-0.423 1.383-1.080 2.705-1.801 3.968 0.72 0.165 1.315 0.631 1.8 1.157 0.486-0.526 1.082-0.992 1.802-1.157zM12.952 23.932c0-0.692-0.125-1.323-0.297-1.954-1.018 0.12-1.801 0.977-1.801 1.954h2.098zM12.717 25.555h-1.863v3.397c0.908-0.992 1.566-2.135 1.863-3.397zM18.341 23.932v-4.781h-0.956c-0.297 1.097-1.206 1.954-2.333 2.3l-0.783 0.18c0.172 0.752 0.297 1.488 0.297 2.3h3.775zM18.341 17.558v-11.801c-1.080 1.203-1.864 2.706-2.036 4.375l-0.658 5.351c0.846 0.466 1.504 1.203 1.738 2.075h0.956z"></path>
</symbol>
<symbol id="icon-arrow-down" viewBox="0 0 32 32">
<path fill="#4f2ee8" style="fill: var(--color1, #4f2ee8)" d="M15.057 17.87c0.242 0.243 0.576 0.393 0.946 0.393s0.704-0.15 0.946-0.393l0-0 6.11-6.122c0.242-0.243 0.576-0.393 0.946-0.393 0.736 0 1.333 0.597 1.333 1.333 0 0.367-0.148 0.699-0.388 0.94l-6.12 6.122c-0.724 0.723-1.723 1.169-2.827 1.169s-2.103-0.447-2.827-1.17l-6.122-6.122c-0.239-0.241-0.387-0.573-0.387-0.94 0-0.737 0.597-1.334 1.334-1.334 0.37 0 0.705 0.151 0.947 0.394l0 0 6.107 6.12z"></path>
</symbol>

<symbol id="icon-search" viewBox="0 0 32 32">
<path d="M31.008 27.231l-7.58-6.447c-0.784-0.705-1.622-1.029-2.299-0.998 1.789-2.096 2.87-4.815 2.87-7.787 0-6.627-5.373-12-12-12s-12 5.373-12 12 5.373 12 12 12c2.972 0 5.691-1.081 7.787-2.87-0.031 0.677 0.293 1.515 0.998 2.299l6.447 7.58c1.104 1.226 2.907 1.33 4.007 0.23s0.997-2.903-0.23-4.007zM12 20c-4.418 0-8-3.582-8-8s3.582-8 8-8 8 3.582 8 8-3.582 8-8 8z"></path>
</symbol>

<symbol id="icon-save-children" viewBox="0 0 64 32">
<path fill="#fff" d="M0 0h64v32h-64z"></path>
</symbol>
</defs>
</svg>
